# xmcd
#
# Track frame offsets: 
#        150
#        11102
#        33890
#        57187
#        74270
#        93457
#        126475
#
# Disc length: 2003 seconds
#
# Revision: 7
# Processed by: cddbd v1.5.2PL0 Copyright (c) Steve Scherf et al.
# Submitted via: ExactAudioCopy v1.0b3
#
DISCID=5c07d107
DTITLE=The Allman Brothers Band - The Allman Brothers Band
DYEAR=1969
DGENRE=Southern Rock
TTITLE0=Don't Want You No More
TTITLE1=It's Not My Cross To Bear
TTITLE2=Black Hearted Woman
TTITLE3=Trouble No More
TTITLE4=Every Hungry Woman
TTITLE5=Dreams
TTITLE6=Whipping Post
EXTD=
EXTT0=
EXTT1=
EXTT2=
EXTT3=
EXTT4=
EXTT5=
EXTT6=
PLAYORDER=
